<svg width="142" height="12" viewBox="0 0 142 12" fill="none" xmlns="http://www.w3.org/2000/svg">
<path d="M3.42813 11H6.07302L7.80313 5.31248H7.88268L9.61279 11H12.2577L15.2605 0.81816H12.1781L10.7861 7.10225H10.7065L9.05597 0.81816H6.62984L4.97927 7.08236H4.89972L3.50768 0.81816H0.425293L3.42813 11Z" fill="white"/>
<path d="M32.3765 5.90907C32.3765 2.5085 30.189 0.678955 27.4248 0.678955C24.6407 0.678955 22.4731 2.5085 22.4731 5.90907C22.4731 9.28975 24.6407 11.1392 27.4248 11.1392C30.189 11.1392 32.3765 9.30964 32.3765 5.90907ZM29.5327 5.90907C29.5327 7.73861 28.7969 8.73293 27.4248 8.73293C26.0526 8.73293 25.3168 7.73861 25.3168 5.90907C25.3168 4.07952 26.0526 3.08521 27.4248 3.08521C28.7969 3.08521 29.5327 4.07952 29.5327 5.90907Z" fill="white"/>
<path d="M40.6554 11H43.4196V7.63918H44.3742L46.1639 11H49.1668L47.0986 7.20168C48.1824 6.67967 48.8287 5.69032 48.8287 4.27839C48.8287 2.11077 47.3124 0.81816 45.0503 0.81816H40.6554V11ZM43.4196 5.49146V3.02555H44.394C45.3635 3.02555 45.9452 3.40339 45.9452 4.27839C45.9452 5.14842 45.3635 5.49146 44.394 5.49146H43.4196Z" fill="white"/>
<path d="M57.007 11H63.8877V8.77271H59.7712V0.81816H57.007V11Z" fill="white"/>
<path d="M75.9226 11C79.0249 11 80.9937 9.09089 80.9937 5.90907C80.9937 2.72725 79.0249 0.81816 75.8829 0.81816H72.005V11H75.9226ZM74.7692 8.65339V3.16475H75.7437C77.3346 3.16475 78.2096 3.78123 78.2096 5.90907C78.2096 8.03691 77.3346 8.65339 75.8232 8.65339H74.7692Z" fill="white"/>
<path d="M89.2726 11H96.1533V8.77271H92.0368V0.81816H89.2726V11Z" fill="white"/>
<path d="M107.035 0.81816H104.271V11H107.035V0.81816Z" fill="white"/>
<path d="M124.155 0.81816H121.39V6.14771H121.311L117.691 0.81816H115.345V11H118.109V5.65055H118.169L121.848 11H124.155V0.81816Z" fill="white"/>
<path d="M132.462 11H135.226V8.37498L136.141 7.1818L138.428 11H141.729L138.209 5.35225L141.65 0.81816H138.428L135.365 4.93464H135.226V0.81816H132.462V11Z" fill="white"/>
</svg>
